<mxfile host="app.diagrams.net" modified="2024-06-25T09:57:14.925Z" agent="Mozilla/5.0 (Windows NT 10.0; Win64; x64) AppleWebKit/537.36 (KHTML, like Gecko) Chrome/124.0.0.0 Safari/537.36 Edg/124.0.0.0" etag="QIo6JKkvKMf2046pESxZ" version="24.5.5" type="github">
  <diagram name="第 1 页" id="5WaXOuPdPEyuQgVvX9WO">
    <mxGraphModel dx="1042" dy="535" grid="1" gridSize="10" guides="1" tooltips="1" connect="1" arrows="1" fold="1" page="1" pageScale="1" pageWidth="827" pageHeight="1169" math="0" shadow="0">
      <root>
        <mxCell id="0" />
        <mxCell id="1" parent="0" />
        <mxCell id="SULV0UFMyUpc4uyj97xS-2" value="变长字段长度列表" style="rounded=0;whiteSpace=wrap;html=1;" vertex="1" parent="1">
          <mxGeometry x="90" y="130" width="120" height="60" as="geometry" />
        </mxCell>
        <mxCell id="SULV0UFMyUpc4uyj97xS-3" value="NULL值列表" style="rounded=0;whiteSpace=wrap;html=1;" vertex="1" parent="1">
          <mxGeometry x="210" y="130" width="120" height="60" as="geometry" />
        </mxCell>
        <mxCell id="SULV0UFMyUpc4uyj97xS-4" value="记录头信息" style="rounded=0;whiteSpace=wrap;html=1;" vertex="1" parent="1">
          <mxGeometry x="330" y="130" width="120" height="60" as="geometry" />
        </mxCell>
        <mxCell id="SULV0UFMyUpc4uyj97xS-5" value="列1的值" style="rounded=0;whiteSpace=wrap;html=1;" vertex="1" parent="1">
          <mxGeometry x="810" y="130" width="120" height="60" as="geometry" />
        </mxCell>
        <mxCell id="SULV0UFMyUpc4uyj97xS-6" value="列2的值" style="rounded=0;whiteSpace=wrap;html=1;" vertex="1" parent="1">
          <mxGeometry x="930" y="130" width="120" height="60" as="geometry" />
        </mxCell>
        <mxCell id="SULV0UFMyUpc4uyj97xS-7" value="........." style="rounded=0;whiteSpace=wrap;html=1;" vertex="1" parent="1">
          <mxGeometry x="1050" y="130" width="120" height="60" as="geometry" />
        </mxCell>
        <mxCell id="SULV0UFMyUpc4uyj97xS-10" value="列n的值" style="rounded=0;whiteSpace=wrap;html=1;" vertex="1" parent="1">
          <mxGeometry x="1170" y="130" width="120" height="60" as="geometry" />
        </mxCell>
        <mxCell id="SULV0UFMyUpc4uyj97xS-11" value="预留位1" style="rounded=0;whiteSpace=wrap;html=1;imageHeight=24;imageWidth=24;" vertex="1" parent="1">
          <mxGeometry x="90" y="275" width="70" height="30" as="geometry" />
        </mxCell>
        <mxCell id="SULV0UFMyUpc4uyj97xS-12" value="COMPACT行格式" style="text;html=1;align=center;verticalAlign=middle;resizable=0;points=[];autosize=1;strokeColor=none;fillColor=none;" vertex="1" parent="1">
          <mxGeometry x="90" y="90" width="120" height="30" as="geometry" />
        </mxCell>
        <mxCell id="SULV0UFMyUpc4uyj97xS-13" value="记录头信息" style="text;html=1;align=center;verticalAlign=middle;resizable=0;points=[];autosize=1;strokeColor=none;fillColor=none;imageHeight=10;" vertex="1" parent="1">
          <mxGeometry x="95" y="230" width="80" height="30" as="geometry" />
        </mxCell>
        <mxCell id="SULV0UFMyUpc4uyj97xS-14" value="预留位2" style="rounded=0;whiteSpace=wrap;html=1;imageHeight=24;imageWidth=24;" vertex="1" parent="1">
          <mxGeometry x="160" y="275" width="70" height="30" as="geometry" />
        </mxCell>
        <mxCell id="SULV0UFMyUpc4uyj97xS-15" value="delete_mask" style="rounded=0;whiteSpace=wrap;html=1;imageHeight=24;imageWidth=24;" vertex="1" parent="1">
          <mxGeometry x="230" y="275" width="90" height="30" as="geometry" />
        </mxCell>
        <mxCell id="SULV0UFMyUpc4uyj97xS-16" value="min_rec_mask" style="rounded=0;whiteSpace=wrap;html=1;" vertex="1" parent="1">
          <mxGeometry x="320" y="275" width="100" height="30" as="geometry" />
        </mxCell>
        <mxCell id="SULV0UFMyUpc4uyj97xS-17" value="n_owned" style="rounded=0;whiteSpace=wrap;html=1;" vertex="1" parent="1">
          <mxGeometry x="420" y="275" width="70" height="30" as="geometry" />
        </mxCell>
        <mxCell id="SULV0UFMyUpc4uyj97xS-18" value="heap_no" style="rounded=0;whiteSpace=wrap;html=1;" vertex="1" parent="1">
          <mxGeometry x="490" y="275" width="70" height="30" as="geometry" />
        </mxCell>
        <mxCell id="SULV0UFMyUpc4uyj97xS-19" value="record_type" style="rounded=0;whiteSpace=wrap;html=1;" vertex="1" parent="1">
          <mxGeometry x="560" y="275" width="90" height="30" as="geometry" />
        </mxCell>
        <mxCell id="SULV0UFMyUpc4uyj97xS-20" value="next_record" style="rounded=0;whiteSpace=wrap;html=1;" vertex="1" parent="1">
          <mxGeometry x="650" y="275" width="90" height="30" as="geometry" />
        </mxCell>
        <mxCell id="SULV0UFMyUpc4uyj97xS-21" value="row_id" style="rounded=0;whiteSpace=wrap;html=1;" vertex="1" parent="1">
          <mxGeometry x="450" y="130" width="120" height="60" as="geometry" />
        </mxCell>
        <mxCell id="SULV0UFMyUpc4uyj97xS-22" value="transaction_id" style="rounded=0;whiteSpace=wrap;html=1;" vertex="1" parent="1">
          <mxGeometry x="570" y="130" width="120" height="60" as="geometry" />
        </mxCell>
        <mxCell id="SULV0UFMyUpc4uyj97xS-23" value="roll_pointer" style="rounded=0;whiteSpace=wrap;html=1;" vertex="1" parent="1">
          <mxGeometry x="690" y="130" width="120" height="60" as="geometry" />
        </mxCell>
        <mxCell id="SULV0UFMyUpc4uyj97xS-24" value="File Header" style="rounded=0;whiteSpace=wrap;html=1;" vertex="1" parent="1">
          <mxGeometry x="90" y="390" width="120" height="60" as="geometry" />
        </mxCell>
        <mxCell id="SULV0UFMyUpc4uyj97xS-25" value="数据页" style="text;html=1;align=center;verticalAlign=middle;whiteSpace=wrap;rounded=0;" vertex="1" parent="1">
          <mxGeometry x="90" y="350" width="60" height="30" as="geometry" />
        </mxCell>
        <mxCell id="SULV0UFMyUpc4uyj97xS-26" value="Page Header" style="rounded=0;whiteSpace=wrap;html=1;" vertex="1" parent="1">
          <mxGeometry x="90" y="450" width="120" height="60" as="geometry" />
        </mxCell>
        <mxCell id="SULV0UFMyUpc4uyj97xS-27" value="Infimum + supremum" style="rounded=0;whiteSpace=wrap;html=1;" vertex="1" parent="1">
          <mxGeometry x="90" y="510" width="120" height="60" as="geometry" />
        </mxCell>
        <mxCell id="SULV0UFMyUpc4uyj97xS-28" value="User Records" style="rounded=0;whiteSpace=wrap;html=1;" vertex="1" parent="1">
          <mxGeometry x="90" y="570" width="120" height="60" as="geometry" />
        </mxCell>
        <mxCell id="SULV0UFMyUpc4uyj97xS-29" value="Free Space" style="rounded=0;whiteSpace=wrap;html=1;" vertex="1" parent="1">
          <mxGeometry x="90" y="630" width="120" height="60" as="geometry" />
        </mxCell>
        <mxCell id="SULV0UFMyUpc4uyj97xS-30" value="Page Directory" style="rounded=0;whiteSpace=wrap;html=1;" vertex="1" parent="1">
          <mxGeometry x="90" y="690" width="120" height="60" as="geometry" />
        </mxCell>
        <mxCell id="SULV0UFMyUpc4uyj97xS-31" value="File Trailer" style="rounded=0;whiteSpace=wrap;html=1;" vertex="1" parent="1">
          <mxGeometry x="90" y="750" width="120" height="60" as="geometry" />
        </mxCell>
        <mxCell id="SULV0UFMyUpc4uyj97xS-32" value="" style="endArrow=none;html=1;rounded=0;entryX=0;entryY=1;entryDx=0;entryDy=0;" edge="1" parent="1" target="SULV0UFMyUpc4uyj97xS-4">
          <mxGeometry width="50" height="50" relative="1" as="geometry">
            <mxPoint x="90" y="270" as="sourcePoint" />
            <mxPoint x="140" y="220" as="targetPoint" />
          </mxGeometry>
        </mxCell>
        <mxCell id="SULV0UFMyUpc4uyj97xS-33" value="" style="endArrow=none;html=1;rounded=0;entryX=0.917;entryY=1;entryDx=0;entryDy=0;entryPerimeter=0;exitX=1;exitY=0;exitDx=0;exitDy=0;" edge="1" parent="1" source="SULV0UFMyUpc4uyj97xS-20" target="SULV0UFMyUpc4uyj97xS-4">
          <mxGeometry width="50" height="50" relative="1" as="geometry">
            <mxPoint x="740" y="270" as="sourcePoint" />
            <mxPoint x="790" y="220" as="targetPoint" />
          </mxGeometry>
        </mxCell>
      </root>
    </mxGraphModel>
  </diagram>
</mxfile>
